<svg width="25" height="25" viewBox="0 0 25 25" fill="none" xmlns="http://www.w3.org/2000/svg">
<path d="M3.564 7.52257C4.39601 5.86582 5.67237 4.47308 7.25043 3.50004C8.82849 2.527 10.6461 2.01199 12.5 2.01257C15.195 2.01257 17.459 3.00357 19.19 4.61757L16.323 7.48557C15.286 6.49457 13.968 5.98957 12.5 5.98957C9.895 5.98957 7.69 7.74957 6.905 10.1126C6.705 10.7126 6.591 11.3526 6.591 12.0126C6.591 12.6726 6.705 13.3126 6.905 13.9126C7.691 16.2766 9.895 18.0356 12.5 18.0356C13.845 18.0356 14.99 17.6806 15.886 17.0806C16.4054 16.7386 16.8501 16.2948 17.1932 15.7761C17.5363 15.2573 17.7706 14.6744 17.882 14.0626H12.5V10.1946H21.918C22.036 10.8486 22.1 11.5306 22.1 12.2396C22.1 15.2856 21.01 17.8496 19.118 19.5896C17.464 21.1176 15.2 22.0126 12.5 22.0126C11.1866 22.0131 9.88604 21.7548 8.67254 21.2524C7.45905 20.7501 6.35645 20.0135 5.42776 19.0848C4.49907 18.1561 3.7625 17.0535 3.26013 15.84C2.75777 14.6265 2.49948 13.3259 2.5 12.0126C2.5 10.3986 2.886 8.87257 3.564 7.52257Z" fill="#8BC3FE"/>
</svg>
