<svg width="366" height="283" viewBox="0 0 366 283" fill="none" xmlns="http://www.w3.org/2000/svg">
<g opacity="0.1" filter="url(#filter0_d_52_364)">
<path fill-rule="evenodd" clip-rule="evenodd" d="M244.781 -341.401C338.081 -348.408 415.709 -265.613 462.273 -187.666C499.772 -124.892 458.233 -51.1341 461.369 21.17C464.789 100.032 537.516 190.681 481.173 248.153C425.006 305.445 326.113 251.698 244.781 242.098C179.382 234.38 107.732 242.218 60.1417 198.46C11.8779 154.083 4.73641 85.3333 4.50221 21.17C4.26695 -43.2846 22.8056 -102.988 58.8429 -157.367C108.52 -232.328 152.529 -334.473 244.781 -341.401Z" fill="#8BC3FE"/>
<path fill-rule="evenodd" clip-rule="evenodd" d="M244.781 -341.401C338.081 -348.408 415.709 -265.613 462.273 -187.666C499.772 -124.892 458.233 -51.1341 461.369 21.17C464.789 100.032 537.516 190.681 481.173 248.153C425.006 305.445 326.113 251.698 244.781 242.098C179.382 234.38 107.732 242.218 60.1417 198.46C11.8779 154.083 4.73641 85.3333 4.50221 21.17C4.26695 -43.2846 22.8056 -102.988 58.8429 -157.367C108.52 -232.328 152.529 -334.473 244.781 -341.401Z" fill="#3F6AB7"/>
<path fill-rule="evenodd" clip-rule="evenodd" d="M244.781 -341.401C338.081 -348.408 415.709 -265.613 462.273 -187.666C499.772 -124.892 458.233 -51.1341 461.369 21.17C464.789 100.032 537.516 190.681 481.173 248.153C425.006 305.445 326.113 251.698 244.781 242.098C179.382 234.38 107.732 242.218 60.1417 198.46C11.8779 154.083 4.73641 85.3333 4.50221 21.17C4.26695 -43.2846 22.8056 -102.988 58.8429 -157.367C108.52 -232.328 152.529 -334.473 244.781 -341.401Z" stroke="black"/>
</g>
<defs>
<filter id="filter0_d_52_364" x="0" y="-342.317" width="507" height="625" filterUnits="userSpaceOnUse" color-interpolation-filters="sRGB">
<feFlood flood-opacity="0" result="BackgroundImageFix"/>
<feColorMatrix in="SourceAlpha" type="matrix" values="0 0 0 0 0 0 0 0 0 0 0 0 0 0 0 0 0 0 127 0" result="hardAlpha"/>
<feOffset dy="4"/>
<feGaussianBlur stdDeviation="2"/>
<feComposite in2="hardAlpha" operator="out"/>
<feColorMatrix type="matrix" values="0 0 0 0 0 0 0 0 0 0 0 0 0 0 0 0 0 0 0.25 0"/>
<feBlend mode="normal" in2="BackgroundImageFix" result="effect1_dropShadow_52_364"/>
<feBlend mode="normal" in="SourceGraphic" in2="effect1_dropShadow_52_364" result="shape"/>
</filter>
</defs>
</svg>
