<svg width="53" height="53" viewBox="0 0 53 53" fill="none" xmlns="http://www.w3.org/2000/svg">
<rect x="0.534058" y="0.987488" width="51.9319" height="51.0251" rx="25.5125" fill="#8BC3FE" fill-opacity="0.05"/>
<path d="M35.466 16.9875L33.466 18.9875M33.466 18.9875L36.466 21.9875L32.966 25.4875L29.966 22.4875M33.466 18.9875L29.966 22.4875M25.856 26.5975C26.3723 27.107 26.7828 27.7135 27.0637 28.3823C27.3447 29.051 27.4906 29.7688 27.493 30.4941C27.4954 31.2195 27.3544 31.9382 27.0779 32.6088C26.8014 33.2794 26.395 33.8887 25.8821 34.4016C25.3692 34.9145 24.7599 35.3209 24.0893 35.5974C23.4187 35.8739 22.7 36.0149 21.9746 36.0125C21.2492 36.0101 20.5315 35.8642 19.8628 35.5832C19.194 35.3023 18.5874 34.8918 18.078 34.3755C17.0761 33.3382 16.5217 31.9489 16.5343 30.5068C16.5468 29.0647 17.1252 27.6852 18.145 26.6655C19.1647 25.6457 20.5442 25.0673 21.9863 25.0548C23.4283 25.0422 24.8177 25.5966 25.855 26.5985L25.856 26.5975ZM25.856 26.5975L29.966 22.4875" stroke="#3F6AB7" stroke-width="2" stroke-linecap="round" stroke-linejoin="round"/>
</svg>
